<svg xmlns="http://www.w3.org/2000/svg" xmlns:xlink="http://www.w3.org/1999/xlink" height="32px" version="1.1" viewBox="0 0 32 32" width="32px" xml:space="preserve" class="style0">
  <style>
	.style0{
		enable-background:	new 0 0 32 32;
	}
	.cog-color{
		fill:	#4E4E50;
	}
</style>
  <g id="Layer_1"/>
  <g id="cog">
    <path d="M32 17.969v-4l-4.781-1.992c-0.133-0.375-0.273-0.738-0.445-1.094l1.93-4.805L25.875 3.2 l-4.762 1.961c-0.363-0.176-0.734-0.324-1.117-0.461L17.969 0h-4l-1.977 4.734c-0.398 0.141-0.781 0.289-1.16 0.469l-4.754-1.91 L3.25 6.121l1.938 4.711C5 11.2 4.8 11.6 4.7 12.02L0 14.031v4l4.707 1.961c0.145 0.4 0.3 0.8 0.5 1.2 l-1.902 4.742l2.828 2.828l4.723-1.945c0.379 0.2 0.8 0.3 1.2 0.461L14.031 32h4l1.98-4.758 c0.379-0.141 0.754-0.289 1.113-0.461l4.797 1.922l2.828-2.828l-1.969-4.773c0.168-0.359 0.305-0.723 0.438-1.094L32 17.969z M15.969 22c-3.312 0-6-2.688-6-6s2.688-6 6-6s6 2.7 6 6S19.281 22 16 22z" class="style1"/>
  </g>
</svg>
